HIERARCHY
ROOT Hips
{
	OFFSET 0.000000 89.005402 0.000000
	CHANNELS 6 Xposition Yposition Zposition Xrotation Yrotation Zrotation
	JOINT Spine
	{
		OFFSET 0.116900 10.681000 0.373400
		CHANNELS 3 Xrotation Yrotation Zrotation
		JOINT Spine1
		{
			OFFSET 0.000000 13.840401 0.053500
			CHANNELS 3 Xrotation Yrotation Zrotation
			JOINT Spine2
			{
				OFFSET 0.000000 14.712700 -0.366200
				CHANNELS 3 Xrotation Yrotation Zrotation
				JOINT Neck
				{
					OFFSET 0.000000 35.415497 -3.314200
					CHANNELS 3 Xrotation Yrotation Zrotation
					JOINT Head
					{
						OFFSET 0.000000 16.899200 1.218300
						CHANNELS 3 Xrotation Yrotation Zrotation
						JOINT HeadTop_End
						{
							OFFSET 0.000000 22.206207 2.192500
							CHANNELS 3 Xrotation Yrotation Zrotation
							End Site
							{
								OFFSET 0.000000 22.314178 0.000000
							}
						}
					}
				}
				JOINT LeftShoulder
				{
					OFFSET 12.896400 26.716293 -4.548400
					CHANNELS 3 Xrotation Yrotation Zrotation
					JOINT LeftArm
					{
						OFFSET 19.027000 -4.857010 -1.718400
						CHANNELS 3 Xrotation Yrotation Zrotation
						JOINT LeftForeArm
						{
							OFFSET 24.179897 0.000000 0.000000
							CHANNELS 3 Xrotation Yrotation Zrotation
							JOINT LeftHand
							{
								OFFSET 27.156403 0.000000 0.000000
								CHANNELS 3 Xrotation Yrotation Zrotation
								JOINT LeftHandIndex1
								{
									OFFSET 16.441200 0.000000 0.000000
									CHANNELS 3 Xrotation Yrotation Zrotation
									JOINT LeftHandIndex2
									{
										OFFSET 4.821899 0.000000 0.000000
										CHANNELS 3 Xrotation Yrotation Zrotation
										JOINT LeftHandIndex3
										{
											OFFSET 6.386497 0.000000 0.000000
											CHANNELS 3 Xrotation Yrotation Zrotation
											JOINT LeftHandIndex4
											{
												OFFSET 5.188988 0.000000 0.000000
												CHANNELS 3 Xrotation Yrotation Zrotation
												End Site
												{
													OFFSET -0.178703 5.185913 0.000177
												}
											}
										}
									}
								}
								JOINT LeftHandThumb1
								{
									OFFSET 6.534897 -5.032593 5.900300
									CHANNELS 3 Xrotation Yrotation Zrotation
									JOINT LeftHandThumb2
									{
										OFFSET 3.818176 -2.204422 2.204423
										CHANNELS 3 Xrotation Yrotation Zrotation
										JOINT LeftHandThumb3
										{
											OFFSET 3.252098 -1.877594 1.877601
											CHANNELS 3 Xrotation Yrotation Zrotation
											JOINT LeftHandThumb4
											{
												OFFSET 5.251778 -3.032120 3.032117
												CHANNELS 3 Xrotation Yrotation Zrotation
												End Site
												{
													OFFSET 0.000023 6.780014 0.000000
												}
											}
										}
									}
								}
							}
						}
					}
				}
				JOINT RightShoulder
				{
					OFFSET -12.896300 26.716293 -4.548400
					CHANNELS 3 Xrotation Yrotation Zrotation
					JOINT RightArm
					{
						OFFSET -19.027000 -4.857010 -1.718400
						CHANNELS 3 Xrotation Yrotation Zrotation
						JOINT RightForeArm
						{
							OFFSET -24.179897 0.000000 0.000000
							CHANNELS 3 Xrotation Yrotation Zrotation
							JOINT RightHand
							{
								OFFSET -27.156403 0.000000 0.000000
								CHANNELS 3 Xrotation Yrotation Zrotation
								JOINT RightHandThumb1
								{
									OFFSET -6.591202 -4.852203 5.988100
									CHANNELS 3 Xrotation Yrotation Zrotation
									JOINT RightHandThumb2
									{
										OFFSET -3.818176 -2.204422 2.204423
										CHANNELS 3 Xrotation Yrotation Zrotation
										JOINT RightHandThumb3
										{
											OFFSET -3.252098 -1.877594 1.877601
											CHANNELS 3 Xrotation Yrotation Zrotation
											JOINT RightHandThumb4
											{
												OFFSET -5.251778 -3.032120 3.032117
												CHANNELS 3 Xrotation Yrotation Zrotation
												End Site
												{
													OFFSET -0.000023 6.780014 0.000000
												}
											}
										}
									}
								}
								JOINT RightHandIndex1
								{
									OFFSET -16.029404 0.000000 0.000000
									CHANNELS 3 Xrotation Yrotation Zrotation
									JOINT RightHandIndex2
									{
										OFFSET -5.213303 0.000000 0.000000
										CHANNELS 3 Xrotation Yrotation Zrotation
										JOINT RightHandIndex3
										{
											OFFSET -6.386528 0.000000 0.000000
											CHANNELS 3 Xrotation Yrotation Zrotation
											JOINT RightHandIndex4
											{
												OFFSET -5.189026 0.000000 0.000000
												CHANNELS 3 Xrotation Yrotation Zrotation
												End Site
												{
													OFFSET 0.236702 5.183624 0.001972
												}
											}
										}
									}
								}
							}
						}
					}
				}
			}
		}
	}
	JOINT LeftUpLeg
	{
		OFFSET 14.073000 -7.904099 -1.463000
		CHANNELS 3 Xrotation Yrotation Zrotation
		JOINT LeftLeg
		{
			OFFSET -0.109806 -34.073280 4.093200
			CHANNELS 3 Xrotation Yrotation Zrotation
			JOINT LeftFoot
			{
				OFFSET 0.109806 -29.899420 -6.319000
				CHANNELS 3 Xrotation Yrotation Zrotation
				JOINT LeftToeBase
				{
					OFFSET 1.551100 -14.988700 20.535801
					CHANNELS 3 Xrotation Yrotation Zrotation
					JOINT LeftToe_End
					{
						OFFSET 0.221200 0.570800 13.248301
						CHANNELS 3 Xrotation Yrotation Zrotation
						End Site
						{
							OFFSET 0.000000 13.262435 0.000000
						}
					}
				}
			}
		}
	}
	JOINT RightUpLeg
	{
		OFFSET -13.839300 -7.904099 -1.463000
		CHANNELS 3 Xrotation Yrotation Zrotation
		JOINT RightLeg
		{
			OFFSET 0.109694 -34.073219 4.093300
			CHANNELS 3 Xrotation Yrotation Zrotation
			JOINT RightFoot
			{
				OFFSET -0.109694 -29.899384 -6.319200
				CHANNELS 3 Xrotation Yrotation Zrotation
				JOINT RightToeBase
				{
					OFFSET -1.551100 -14.988700 20.535801
					CHANNELS 3 Xrotation Yrotation Zrotation
					JOINT RightToe_End
					{
						OFFSET -0.221200 0.570900 13.248299
						CHANNELS 3 Xrotation Yrotation Zrotation
						End Site
						{
							OFFSET 0.000000 13.262440 0.000000
						}
					}
				}
			}
		}
	}
}
MOTION
Frames: 7
Frame Time: 0.033333
-0.515522 79.410400 2.246649 3.252726 6.719114 5.273610 -0.224146 0.373529 -4.072195 -0.074625 -0.841155 -1.677552 -0.064627 -0.838233 -1.672355 -3.454286 -1.906464 3.559382 -4.092003 -4.560706 0.378297 -0.000000 0.000000 0.000000 0.629538 0.637265 -11.769981 12.414227 -26.429740 -45.792932 0.000015 -117.111298 0.000014 30.408846 -24.157513 22.444232 0.157184 -1.465728 12.241154 -0.000001 -0.000004 -0.000046 0.000002 0.000007 -0.000029 -0.000002 0.000001 0.000000 19.544453 8.705364 37.791621 3.939047 7.948696 0.746800 -0.579477 1.575005 2.538726 0.000000 -0.000000 -0.000001 1.360295 -5.830533 9.151270 -10.330598 -30.616699 60.312189 0.000067 60.059370 -0.000075 29.926764 6.070180 -14.789911 -10.543193 -18.141874 -26.460423 4.637201 -8.634128 -0.225402 -1.273759 0.137310 -2.094869 -0.000002 -0.000000 0.000001 0.014853 0.455196 -3.737902 -0.000008 0.000005 0.000006 0.000005 -0.000005 -0.000002 0.000001 -0.000003 -0.000002 -6.378221 8.864755 -13.756243 38.893413 3.332273 1.302568 -29.431087 -2.442109 5.914715 -13.405629 -0.000002 -0.000002 -0.000000 -0.000001 0.000000 -32.190695 5.173910 -5.313098 82.755248 -1.381590 -0.464048 19.216503 0.004235 -0.135206 -53.550981 -4.705538 4.476633 -0.000000 0.000000 -0.000000 
0.186953 82.271118 8.442669 4.686366 5.784814 3.203171 -0.006533 -1.293749 -2.518031 -0.001299 -3.543321 -0.033929 0.098117 -3.522156 -0.057353 -5.007134 -0.769218 2.979016 -2.329166 0.991899 -2.381177 0.000000 0.000000 0.000000 -0.213672 3.298065 -11.945423 13.338297 -22.544257 -52.331967 0.000062 -110.031417 0.000057 31.025970 -17.593688 27.535913 0.085505 -1.083982 9.020564 -0.000001 -0.000006 -0.000048 -0.000000 0.000011 -0.000029 0.000000 -0.000004 0.000002 25.237911 5.579460 34.612557 3.939047 7.948693 0.746798 -0.579476 1.575007 2.538725 -0.000000 -0.000001 0.000000 1.583898 -3.654070 8.416768 -16.162430 -31.637112 59.484370 0.000090 67.083564 -0.000102 31.885116 12.545565 -19.431040 -6.775557 -16.519697 -25.257753 4.637203 -8.634126 -0.225402 -1.273762 0.137310 -2.094868 0.000001 -0.000001 0.000001 0.010157 0.376288 -3.089337 -0.000013 0.000007 0.000004 0.000005 -0.000005 -0.000004 0.000004 0.000001 -0.000001 -4.729364 9.879962 -11.106531 40.029847 7.728007 3.422096 -21.451312 -1.359473 -0.002989 -27.259987 -0.000007 0.000001 0.000000 -0.000002 -0.000000 -35.123609 2.838519 -2.459659 69.920728 -4.249911 -2.753204 7.411205 -0.173712 1.018952 -45.733010 -3.392894 4.205364 -0.000000 -0.000000 0.000000 
0.680685 84.687393 13.899205 5.786845 5.893667 0.974552 -0.809333 -2.368065 -0.497599 -1.062729 -5.470877 0.895570 -0.943395 -5.480857 0.876250 -5.792060 0.015584 2.575470 -0.092861 4.654405 -4.801240 -0.000000 0.000000 0.000000 -0.787861 5.003748 -11.735221 14.059900 -18.189455 -58.505666 0.000330 -98.745937 0.000318 27.965579 -16.763152 32.269259 0.047273 -0.807055 6.703318 -0.000002 -0.000004 -0.000047 -0.000001 0.000006 -0.000027 -0.000001 -0.000001 0.000001 27.353227 4.602581 32.178845 3.939043 7.948699 0.746801 -0.579473 1.575004 2.538730 0.000001 0.000001 0.000001 1.741550 -1.978710 8.312669 -19.570483 -31.816920 57.981496 -0.000013 75.785839 0.000011 31.813580 14.914189 -21.477721 -4.116211 -15.092036 -24.664411 4.637204 -8.634125 -0.225403 -1.273760 0.137310 -2.094870 0.000002 -0.000002 0.000001 0.009796 0.369620 -3.034506 -0.000011 0.000004 0.000003 0.000007 -0.000001 0.000001 -0.000003 0.000000 0.000000 -9.217357 8.530403 -7.444999 47.021836 8.807487 4.155418 -1.728396 2.402432 -7.398343 -43.488484 -0.417196 1.160119 -0.000000 0.000001 0.000000 -34.649167 -0.394750 0.024628 51.821782 -4.327665 -4.751231 -1.125387 -0.327760 3.160161 -21.206867 -0.288619 1.480823 -0.000000 -0.000000 0.000000 
0.822849 84.880669 18.770678 5.989525 6.389792 0.279417 -1.391413 -2.906339 0.722257 -1.756310 -6.429051 1.080707 -1.653081 -6.451396 1.086145 -5.654809 0.407421 2.269960 1.452774 6.212193 -6.162249 0.000000 -0.000000 -0.000000 -1.079234 5.989229 -11.405624 12.262853 -13.043605 -62.703288 -0.001116 -85.622200 -0.001095 24.587988 -18.820199 35.141771 0.026927 -0.609561 5.057884 -0.000003 -0.000005 -0.000046 -0.000001 0.000007 -0.000029 -0.000003 0.000000 -0.000001 26.222339 6.075607 30.582770 3.939043 7.948698 0.746799 -0.579476 1.575006 2.538728 0.000000 -0.000000 -0.000003 1.763832 -1.062871 8.763830 -21.821746 -30.581520 57.216478 0.002112 86.448550 -0.002107 30.278690 16.742670 -22.039986 -2.620984 -14.049481 -24.538930 4.637202 -8.634124 -0.225403 -1.273760 0.137306 -2.094867 0.000003 0.000001 -0.000001 0.011297 0.397146 -3.260591 -0.000009 0.000004 0.000008 0.000004 0.000001 -0.000004 0.000001 -0.000002 -0.000002 -12.507300 4.977232 -4.788856 50.116636 7.368855 3.636974 25.462766 2.514283 -12.280241 -67.407274 1.712893 -1.353662 0.000000 0.000000 -0.000000 -32.443330 -3.719963 2.726916 34.684138 -2.442957 -6.084969 -0.670100 0.389566 1.321384 -7.796256 0.001892 -0.030664 0.000000 0.000000 0.000000 
0.678658 83.631386 23.251278 4.086932 5.628522 -0.120368 -1.220089 -2.775063 1.447755 -1.339526 -6.114999 0.983292 -1.255479 -6.124993 1.018139 -4.742437 0.473361 2.032765 1.743555 6.167904 -6.350774 -0.000000 0.000000 0.000000 -1.098522 6.397247 -11.265554 8.898446 -7.018769 -64.049901 0.000015 -74.806704 0.000028 23.157449 -19.625181 35.941569 0.015050 -0.456044 3.781784 -0.000004 -0.000003 -0.000046 -0.000000 0.000008 -0.000032 0.000001 0.000000 0.000000 23.920687 8.597288 29.420855 3.939046 7.948696 0.746800 -0.579477 1.575008 2.538729 -0.000001 -0.000000 -0.000000 1.716596 -1.014846 9.216667 -23.761113 -27.048357 57.577661 0.000494 97.131335 -0.000505 28.861022 20.520521 -22.731766 -1.762985 -13.271326 -24.532976 4.637202 -8.634124 -0.225402 -1.273762 0.137311 -2.094868 -0.000000 -0.000002 0.000000 0.012759 0.421780 -3.463109 -0.000007 0.000011 0.000004 0.000006 -0.000001 -0.000001 0.000001 0.000003 -0.000001 -15.501973 3.256282 -4.759926 68.568044 6.983844 2.958817 28.059679 1.944433 -8.231808 2.968097 0.058348 0.910774 0.000000 0.000000 -0.000000 -30.843942 -6.028260 4.980130 30.049950 0.055496 -6.125616 -1.445583 0.501316 0.035337 -2.666064 -0.000001 -0.000001 0.000000 0.000000 0.000000 
0.436604 81.519096 27.726227 1.072741 3.260138 -1.036316 -0.588150 -2.033383 1.766077 -0.236189 -4.597719 1.005801 -0.169062 -4.586682 1.054858 -3.589516 0.332139 1.977419 0.931784 5.420370 -5.957269 -0.000000 0.000000 0.000000 -0.890343 6.049308 -11.302938 6.077154 -0.156669 -63.612578 -0.000044 -70.263925 -0.000040 24.525821 -17.572659 36.044728 0.007920 -0.331019 2.743937 0.000002 -0.000002 -0.000047 -0.000003 0.000011 -0.000024 0.000003 0.000001 -0.000001 21.671372 11.077126 28.434132 3.939046 7.948695 0.746801 -0.579473 1.575009 2.538726 0.000002 -0.000002 0.000002 1.653880 -1.774708 9.281635 -25.907019 -20.237770 58.317460 0.000168 104.978266 -0.000180 29.082894 25.034281 -23.759528 -1.274995 -12.691815 -24.484097 4.637204 -8.634124 -0.225402 -1.273763 0.137312 -2.094868 0.000000 -0.000001 -0.000000 0.013421 0.432625 -3.552371 -0.000007 0.000008 0.000007 0.000005 -0.000004 -0.000001 0.000002 -0.000002 0.000000 -16.831789 3.209347 -3.210701 87.864633 6.159213 1.882108 24.971156 0.355850 -5.019225 5.376378 0.000001 0.000001 -0.000000 0.000000 -0.000000 -28.749817 -6.990900 7.524260 34.501249 0.930440 -3.951775 -6.176111 1.319239 -5.110835 -2.934122 -0.000000 -0.000000 0.000000 -0.000000 -0.000000 
0.253830 78.621361 32.269329 -0.255051 0.505234 -2.005909 -0.142579 -0.815274 1.790177 0.501114 -2.297433 0.977456 0.538112 -2.273742 1.015514 -2.716153 0.018349 2.266442 -0.669291 4.310211 -5.407315 -0.000000 -0.000000 -0.000000 -0.468588 4.511177 -11.251429 4.287818 7.986423 -63.193204 0.000036 -72.509684 0.000040 27.600883 -14.001633 36.026741 0.004129 -0.239150 1.982070 -0.000003 -0.000003 -0.000046 0.000001 0.000011 -0.000026 0.000001 0.000001 -0.000001 19.439343 13.369067 27.672069 3.939043 7.948692 0.746802 -0.579473 1.575008 2.538729 -0.000001 -0.000002 0.000003 1.547124 -3.261216 9.134544 -26.771958 -9.984640 58.335225 0.000129 109.567046 -0.000146 31.433900 26.282073 -24.200151 -1.276323 -12.380824 -24.470946 4.637205 -8.634128 -0.225402 -1.273761 0.137307 -2.094867 0.000000 0.000002 0.000001 0.013922 0.440727 -3.618946 -0.000008 0.000007 0.000007 0.000004 -0.000002 -0.000002 0.000001 -0.000000 -0.000000 -20.235052 3.618780 -0.174473 102.700958 5.199225 1.064486 20.646559 -0.668077 -3.540194 9.213874 0.000000 0.000001 -0.000001 0.000000 -0.000000 -28.813399 -6.463149 9.744561 45.492304 0.748538 -2.536614 -15.481647 1.691895 -7.403052 -1.624598 0.000000 0.000001 -0.000000 0.000000 -0.000000 
